<svg xmlns="http://www.w3.org/2000/svg" viewBox="0 0 220 60" role="img" aria-label="Jets Data Analytics Tool">
  <rect width="220" height="60" rx="12" fill="#F2F2F2"/>
  <rect x="10" y="10" width="40" height="40" rx="8" fill="#125740"/>
  <path d="M24 40V20h8.3c3.8 0 6.8 1 9 3s3.2 4.6 3.2 7.9-1.1 5.9-3.2 7.9-5.2 3-9 3H24zm8-5h3.6c2.3 0 4-.6 5.3-1.7 1.3-1.1 1.9-2.7 1.9-4.8s-.6-3.7-1.9-4.8c-1.3-1.1-3-1.7-5.3-1.7H32V35z" fill="#FFFFFF"/>
  <text x="64" y="26" font-family="DM Sans, sans-serif" font-size="16" fill="#125740" font-weight="700">Jets Data Analytics Tool</text>
  <text x="64" y="44" font-family="DM Sans, sans-serif" font-size="12" fill="#111111">Internal Demo</text>
</svg>
